<svg width="58" height="59" viewBox="0 0 58 59" fill="none" xmlns="http://www.w3.org/2000/svg">
<path d="M51.9819 28.8472C51.9819 29.4472 51.7223 29.9994 51.2503 30.4556L35.5798 46.3962C35.0841 46.8525 34.5885 47.0445 34.0457 47.0445C32.8657 47.0445 31.9689 46.1804 31.9689 44.98C31.9689 44.4278 32.1813 43.8516 32.559 43.4674L37.8218 37.9939L45.7987 30.6235L40.0638 31.0078H10.2331C9.00595 31.0078 8.15625 30.0955 8.15625 28.8472C8.15625 27.5988 9.00595 26.7104 10.2331 26.7104H40.0638L45.7751 27.0705L37.8218 19.7004L32.559 14.2507C32.1576 13.8426 31.9689 13.2904 31.9689 12.7143C31.9689 11.5379 32.8657 10.6497 34.0457 10.6497C34.5885 10.6497 35.1077 10.8657 35.627 11.3699L51.2503 27.2387C51.7223 27.7188 51.9819 28.2709 51.9819 28.8472Z" fill="white"/>
</svg>
